<svg xmlns="http://www.w3.org/2000/svg" width="240" height="240" viewBox="0 0 240 240">
  <!-- Scattered rice grains. Tileable, meant to sit at very low opacity. -->
  <g fill="none" stroke="#8A6420" stroke-width="1.4" opacity="0.5">
    <ellipse cx="28" cy="34" rx="4.4" ry="8" transform="rotate(24 28 34)"/>
    <ellipse cx="96" cy="18" rx="4.4" ry="8" transform="rotate(-38 96 18)"/>
    <ellipse cx="168" cy="44" rx="4.4" ry="8" transform="rotate(64 168 44)"/>
    <ellipse cx="222" cy="22" rx="4.4" ry="8" transform="rotate(12 222 22)"/>
    <ellipse cx="54" cy="96" rx="4.4" ry="8" transform="rotate(-16 54 96)"/>
    <ellipse cx="132" cy="88" rx="4.4" ry="8" transform="rotate(48 132 88)"/>
    <ellipse cx="200" cy="112" rx="4.4" ry="8" transform="rotate(-58 200 112)"/>
    <ellipse cx="16" cy="146" rx="4.4" ry="8" transform="rotate(38 16 146)"/>
    <ellipse cx="88" cy="162" rx="4.4" ry="8" transform="rotate(-24 88 162)"/>
    <ellipse cx="158" cy="176" rx="4.4" ry="8" transform="rotate(72 158 176)"/>
    <ellipse cx="228" cy="168" rx="4.4" ry="8" transform="rotate(-8 228 168)"/>
    <ellipse cx="40" cy="216" rx="4.4" ry="8" transform="rotate(52 40 216)"/>
    <ellipse cx="116" cy="228" rx="4.4" ry="8" transform="rotate(-44 116 228)"/>
    <ellipse cx="188" cy="232" rx="4.4" ry="8" transform="rotate(28 188 232)"/>
  </g>
</svg>
